<svg width="26" height="18" viewBox="0 0 26 18" fill="none" xmlns="http://www.w3.org/2000/svg">
<path d="M24.3196 0.16349C24.2105 0.153186 24.1006 0.153186 23.9916 0.16349H1.59196C1.4484 0.165518 1.30579 0.185259 1.16797 0.22218L12.7278 10.7791L24.3196 0.16349Z" fill="#1B1C22"/>
<path d="M25.5039 1.18335L13.8559 11.821C13.5561 12.0943 13.1506 12.2477 12.7279 12.2477C12.3052 12.2477 11.8997 12.0943 11.5999 11.821L0.0559997 1.26405C0.0205114 1.38366 0.00169494 1.50691 0 1.63086V16.3035C0 16.6926 0.16857 17.0658 0.468626 17.341C0.768683 17.6162 1.17565 17.7708 1.59999 17.7708H23.9999C24.4242 17.7708 24.8312 17.6162 25.1312 17.341C25.4313 17.0658 25.5999 16.6926 25.5999 16.3035V1.63086C25.5935 1.47802 25.5611 1.32702 25.5039 1.18335ZM2.69598 16.3035H1.58399V15.2544L7.39996 9.96492L8.52795 10.9993L2.69598 16.3035ZM23.9839 16.3035H22.8639L17.0319 10.9993L18.1599 9.96492L23.9759 15.2544L23.9839 16.3035Z" fill="#1B1C22"/>
</svg>
