<svg width="20" height="19" viewBox="0 0 20 19" fill="none" xmlns="http://www.w3.org/2000/svg">
<path d="M17.8571 0H2.14286C1.57454 0 1.02949 0.204522 0.627628 0.568574C0.225765 0.932625 0 1.42639 0 1.94123L0 16.1769C0 16.6918 0.225765 17.1855 0.627628 17.5496C1.02949 17.9136 1.57454 18.1182 2.14286 18.1182H8.27009V11.9584H5.45759V9.05908H8.27009V6.84931C8.27009 4.33582 9.92188 2.94744 12.4518 2.94744C13.6634 2.94744 14.9304 3.14318 14.9304 3.14318V5.61016H13.5344C12.1589 5.61016 11.7299 6.38342 11.7299 7.17649V9.05908H14.8004L14.3094 11.9584H11.7299V18.1182H17.8571C18.4255 18.1182 18.9705 17.9136 19.3724 17.5496C19.7742 17.1855 20 16.6918 20 16.1769V1.94123C20 1.42639 19.7742 0.932625 19.3724 0.568574C18.9705 0.204522 18.4255 0 17.8571 0Z" fill="#1B1C22"/>
</svg>
