<svg width="20" height="20" viewBox="0 0 20 20" fill="none" xmlns="http://www.w3.org/2000/svg">
<path d="M19.9356 5.77677C19.9244 4.95499 19.7669 4.14137 19.4702 3.37232C19.213 2.72363 18.82 2.1345 18.3165 1.64257C17.813 1.15065 17.21 0.766747 16.546 0.515396C15.7689 0.230417 14.948 0.0763234 14.1182 0.0596775C13.0498 0.0130206 12.711 0 9.99889 0C7.28676 0 6.93914 7.27579e-08 5.8785 0.0596775C5.04904 0.0764458 4.22851 0.230537 3.4518 0.515396C2.78771 0.766572 2.18461 1.15041 1.68107 1.64236C1.17753 2.1343 0.784639 2.72352 0.527543 3.37232C0.235263 4.13091 0.07788 4.93273 0.0621946 5.74314C0.014438 6.78804 0 7.11897 0 9.76865C0 12.4183 -8.27475e-09 12.7569 0.0621946 13.7942C0.0788538 14.6058 0.235451 15.4065 0.527543 16.1672C0.785071 16.8158 1.17825 17.4047 1.68196 17.8965C2.18567 18.3882 2.78883 18.7719 3.45291 19.023C4.22749 19.3194 5.04817 19.4845 5.87961 19.5113C6.94913 19.5579 7.28787 19.572 10 19.572C12.7121 19.572 13.0598 19.572 14.1204 19.5113C14.9502 19.4953 15.7712 19.3416 16.5482 19.0566C17.212 18.805 17.8149 18.421 18.3183 17.9291C18.8218 17.4372 19.2149 16.8482 19.4725 16.1997C19.7646 15.4402 19.9211 14.6394 19.9378 13.8267C19.9856 12.7829 20 12.452 20 9.8012C19.9978 7.15153 19.9978 6.81516 19.9356 5.77677ZM9.99223 14.7794C7.15571 14.7794 4.85784 12.5344 4.85784 9.76323C4.85784 6.99202 7.15571 4.74707 9.99223 4.74707C11.354 4.74707 12.6599 5.27555 13.6228 6.21627C14.5857 7.15698 15.1266 8.43286 15.1266 9.76323C15.1266 11.0936 14.5857 12.3695 13.6228 13.3102C12.6599 14.2509 11.354 14.7794 9.99223 14.7794ZM15.331 5.7312C14.6679 5.7312 14.1337 5.20821 14.1337 4.56152C14.1337 4.40799 14.1647 4.25596 14.2248 4.11412C14.285 3.97227 14.3731 3.84339 14.4842 3.73482C14.5953 3.62626 14.7273 3.54014 14.8725 3.48139C15.0176 3.42263 15.1733 3.39239 15.3304 3.39239C15.4876 3.39239 15.6432 3.42263 15.7884 3.48139C15.9336 3.54014 16.0655 3.62626 16.1766 3.73482C16.2877 3.84339 16.3759 3.97227 16.436 4.11412C16.4961 4.25596 16.5271 4.40799 16.5271 4.56152C16.5271 5.20821 15.9918 5.7312 15.331 5.7312Z" fill="#1B1C22"/>
<path d="M10 13.8562C12.2091 13.8562 14 12.1037 14 9.94189C14 7.78008 12.2091 6.02759 10 6.02759C7.79086 6.02759 6 7.78008 6 9.94189C6 12.1037 7.79086 13.8562 10 13.8562Z" fill="#1B1C22"/>
</svg>
