<svg width="20" height="20" viewBox="0 0 20 20" fill="none" xmlns="http://www.w3.org/2000/svg">
<path d="M14.9372 19.572H5.06283C2.26603 19.572 0 17.3545 0 14.6197V4.95449C0 2.21754 2.26603 0 5.06283 0H14.9372C17.734 0 20 2.21754 20 4.95449V14.6197C20 17.3545 17.734 19.572 14.9372 19.572Z" fill="#1B1C22"/>
<path d="M15.5643 9.18091C15.4626 9.19217 15.3587 9.19668 15.257 9.19668C14.1274 9.19668 13.0752 8.61767 12.4563 7.65566V12.905C12.4563 15.0498 10.7519 16.7869 8.64964 16.7869C6.54738 16.7869 4.84082 15.0498 4.84082 12.905C4.84082 10.7625 6.54738 9.02545 8.64964 9.02545C8.72922 9.02545 8.80659 9.03221 8.88396 9.03672V10.9495C8.80659 10.9405 8.72922 10.9247 8.64964 10.9247C7.5753 10.9247 6.70655 11.8124 6.70655 12.9073C6.70655 14 7.5753 14.8876 8.64964 14.8876C9.72177 14.8876 10.6701 14.0247 10.6701 12.9298L10.69 4.01489H12.485C12.653 5.65504 13.9528 6.93472 15.5665 7.05637V9.18091" fill="white"/>
</svg>
