<svg width="20" height="19" viewBox="0 0 20 19" fill="none" xmlns="http://www.w3.org/2000/svg">
<path d="M17.8571 0H2.14286C0.959821 0 0 0.86951 0 1.94123V16.1769C0 17.2487 0.959821 18.1182 2.14286 18.1182H17.8571C19.0402 18.1182 20 17.2487 20 16.1769V1.94123C20 0.86951 19.0402 0 17.8571 0ZM15.6741 6.42224C15.683 6.53548 15.683 6.65276 15.683 6.766C15.683 10.2724 12.7366 14.3125 7.35268 14.3125C5.69196 14.3125 4.15179 13.8758 2.85714 13.1235C3.09375 13.1478 3.32143 13.1559 3.5625 13.1559C4.93304 13.1559 6.19196 12.7353 7.19643 12.0235C5.91071 11.9992 4.83036 11.2349 4.45982 10.1834C4.91071 10.244 5.31696 10.244 5.78125 10.1348C4.44196 9.88815 3.4375 8.82047 3.4375 7.53036V7.49801C3.82589 7.69618 4.28125 7.8175 4.75893 7.83368C4.35733 7.59169 4.02812 7.26339 3.80066 6.87809C3.5732 6.49279 3.45457 6.06247 3.45536 5.62553C3.45536 5.13213 3.59821 4.67918 3.85268 4.28689C5.29464 5.89649 7.45982 6.94799 9.88839 7.06123C9.47321 5.26155 10.9598 3.80158 12.7455 3.80158C13.5893 3.80158 14.3482 4.12107 14.8839 4.63873C15.5446 4.5255 16.1786 4.30306 16.7411 3.99975C16.5223 4.61447 16.0625 5.13213 15.4554 5.45971C16.0446 5.4031 16.6161 5.25346 17.1429 5.0472C16.7455 5.577 16.2455 6.04613 15.6741 6.42224Z" fill="#1B1C22"/>
</svg>
